<?xml version="1.0" standalone="no"?>
<!DOCTYPE svg PUBLIC "-//W3C//DTD SVG 20010904//EN"
 "http://www.w3.org/TR/2001/REC-SVG-20010904/DTD/svg10.dtd">
<svg version="1.0" xmlns="http://www.w3.org/2000/svg"
 width="1920.000000pt" height="1920.000000pt" viewBox="0 0 1920.000000 1920.000000"
 preserveAspectRatio="xMidYMid meet">

<g transform="translate(0.000000,1920.000000) scale(0.100000,-0.100000)"
fill="#000000" stroke="none">
<path d="M8310 16254 c-19 -9 -87 -24 -150 -35 -173 -29 -219 -67 -245 -203
-16 -85 -44 -134 -98 -166 -54 -33 -97 -34 -216 -4 -102 26 -113 27 -167 15
-53 -12 -65 -20 -135 -92 -41 -43 -87 -81 -102 -84 -18 -5 -44 1 -83 19 -80
37 -114 35 -153 -9 -17 -19 -33 -35 -36 -35 -2 0 -30 16 -61 36 -115 74 -143
69 -229 -37 -31 -38 -61 -69 -66 -69 -6 0 -33 22 -59 49 -43 44 -53 49 -106
55 -49 6 -66 3 -99 -14 -21 -11 -45 -20 -52 -20 -7 0 -45 -30 -84 -67 -39 -37
-92 -81 -117 -98 -25 -16 -54 -42 -65 -56 -19 -26 -19 -27 1 -70 35 -78 100
-122 273 -183 41 -15 51 -24 77 -75 17 -31 48 -73 69 -92 129 -119 148 -152
148 -254 0 -51 -5 -77 -18 -95 -36 -51 -26 -70 98 -185 109 -102 205 -213 205
-239 0 -10 -80 -39 -87 -32 -2 2 14 15 34 30 l38 28 -43 -6 c-102 -15 -191
-88 -244 -202 -25 -54 -37 -67 -81 -92 -64 -36 -137 -113 -170 -178 -19 -36
-38 -56 -75 -78 l-50 -29 -6 -91 c-4 -50 -15 -298 -26 -551 -11 -253 -22 -506
-26 -563 l-6 -103 -222 -181 c-121 -99 -224 -184 -229 -187 -4 -4 -18 -200
-31 -437 -23 -402 -26 -435 -52 -521 -15 -51 -31 -93 -34 -93 -4 0 -89 158
-189 351 -129 249 -179 355 -172 362 21 21 10 67 -35 143 -25 43 -63 114 -83
159 -36 77 -86 135 -116 135 -8 0 -42 55 -76 123 -34 67 -117 221 -184 342
-67 121 -159 293 -204 383 -99 195 -121 216 -224 214 -40 0 -71 5 -86 15 -14
9 -45 61 -78 131 -30 65 -84 179 -120 255 -56 117 -64 142 -55 161 15 35 72
96 88 96 7 0 21 11 29 24 25 38 10 123 -28 159 -16 15 -35 27 -42 27 -19 0
-82 -28 -155 -69 -36 -20 -85 -45 -110 -55 -105 -41 -110 -45 -110 -104 0 -12
131 -283 290 -602 160 -319 290 -585 290 -592 0 -15 49 -118 358 -748 123
-250 226 -460 229 -466 3 -8 -24 -16 -79 -24 -147 -20 -327 10 -530 89 -108
42 -151 49 -179 28 -24 -18 -179 -237 -195 -276 -30 -72 -11 -99 104 -146 246
-100 523 -165 709 -165 50 0 60 -4 104 -41 28 -23 63 -43 84 -46 23 -4 35 -11
35 -22 0 -9 16 -47 35 -85 20 -38 34 -69 33 -70 -48 -20 -92 -80 -85 -116 4
-18 -3 -35 -24 -60 -16 -19 -29 -38 -29 -42 0 -4 -22 -30 -50 -56 -57 -55 -62
-79 -25 -128 14 -18 25 -44 25 -57 0 -27 67 -132 121 -189 40 -43 71 -48 122
-22 31 17 31 17 59 -17 16 -19 68 -101 115 -184 131 -227 218 -352 306 -440
l80 -80 -12 -260 c-17 -354 -7 -321 -98 -329 -42 -3 -252 -6 -467 -6 -215 0
-396 -4 -403 -8 -8 -5 15 -55 74 -162 67 -121 87 -166 90 -205 4 -43 -44 -220
-362 -1329 -201 -704 -384 -1325 -406 -1380 -91 -230 -149 -317 -449 -679
-127 -154 -230 -281 -227 -283 2 -2 208 0 458 5 250 6 616 13 814 16 l360 6
260 70 c296 80 336 95 422 161 l63 47 117 -73 c1186 -735 2629 -1505 3776
-2017 l109 -48 271 123 c909 413 1907 935 2922 1529 254 148 697 415 754 453
l34 23 41 -33 c77 -62 141 -94 431 -214 l290 -119 690 -27 c380 -15 747 -30
818 -33 70 -3 127 -2 127 2 0 4 -111 151 -247 328 -352 457 -407 542 -489 759
-37 100 -759 2607 -770 2675 -6 37 2 59 75 217 44 97 81 181 81 186 0 6 -142
10 -385 10 l-385 0 0 150 0 149 50 -29 c66 -39 144 -64 174 -56 78 19 300 265
382 421 64 124 67 292 9 485 -14 47 -53 186 -86 310 -119 446 -161 589 -241
830 -135 409 -156 440 -408 598 l-155 97 -8 135 c-4 74 -10 162 -13 196 l-5
60 -170 139 -169 138 17 26 c10 14 37 60 60 101 40 69 54 105 83 217 8 31 19
46 45 61 38 23 59 58 69 116 4 22 21 72 37 113 38 96 38 143 2 175 l-28 23 1
210 c0 125 5 220 11 235 11 27 3 97 -24 207 -11 46 -26 75 -54 105 -21 24 -38
37 -39 30 0 -7 -23 4 -52 27 -89 65 -223 121 -245 101 -4 -4 -59 5 -121 21
-135 34 -143 34 -477 -38 -13 -3 -175 86 -470 257 -247 144 -549 319 -670 390
-121 70 -414 240 -650 378 -237 137 -464 274 -505 303 -42 30 -114 72 -160 93
-47 22 -165 86 -263 143 -98 57 -182 103 -187 103 -5 0 -4 13 1 29 13 37 -16
97 -75 156 -63 63 -102 73 -316 79 -212 6 -308 23 -437 80 -45 20 -85 36 -89
36 -4 0 -44 38 -88 84 -114 119 -195 150 -286 110z m1551 -807 c167 -50 300
-126 431 -247 132 -120 264 -332 303 -484 56 -220 40 -498 -37 -679 -27 -63
-33 -55 -8 11 47 124 64 357 36 504 -37 193 -145 385 -312 552 -118 119 -319
256 -328 224 -3 -7 -7 -35 -10 -61 -9 -71 -31 -109 -96 -166 l-58 -51 -6 28
c-2 15 -7 48 -11 73 -8 64 -26 86 -56 73 -20 -9 -28 -7 -44 9 -42 41 -99 77
-123 77 -24 0 -25 -2 -19 -50 l6 -50 -50 0 c-28 0 -59 -5 -70 -10 -17 -10 -19
-7 -19 28 0 42 -20 68 -45 59 -8 -4 -34 -33 -57 -66 -34 -47 -49 -60 -69 -60
-15 -1 -30 -8 -33 -17 -9 -23 -7 -93 4 -139 7 -31 6 -41 -6 -48 -21 -12 -17
-41 10 -66 l24 -22 -22 -22 c-12 -12 -48 -38 -80 -57 -72 -44 -174 -151 -217
-227 -60 -108 -127 -139 -230 -106 l-59 20 0 -45 c0 -140 59 -381 126 -514 39
-76 39 -90 1 -25 -44 75 -97 214 -134 355 -36 134 -37 141 -37 327 -1 188 0
191 30 277 113 315 374 519 779 608 134 29 366 23 486 -13z m-1340 -224 c36
-116 69 -203 76 -203 7 0 1 -23 -17 -62 -43 -92 -71 -209 -77 -326 -5 -95 -7
-101 -23 -87 -9 8 -23 15 -30 15 -7 0 -92 -56 -188 -126 -96 -69 -176 -124
-178 -122 -1 2 28 100 67 218 65 201 68 216 52 228 -10 7 -94 68 -187 135
l-169 122 233 5 232 5 66 207 c37 114 69 204 73 200 3 -4 34 -98 70 -209z
m1145 -86 c5 -17 7 -17 24 -2 18 16 19 15 25 -17 9 -46 -1 -188 -14 -201 -18
-18 -12 -27 19 -27 36 0 41 -24 8 -41 -25 -13 -144 -7 -160 9 -7 7 1 21 27 44
76 66 87 175 26 243 -10 11 -22 34 -25 50 l-7 30 35 -34 c20 -19 39 -43 42
-54z m-345 -29 c-33 -94 5 -191 88 -230 31 -14 47 -27 44 -35 -3 -7 -37 -23
-75 -34 -58 -18 -74 -19 -96 -9 l-27 12 33 17 c30 16 31 18 15 33 -9 10 -18
25 -19 35 -2 10 -12 43 -23 73 -11 30 -20 68 -21 83 0 24 3 27 20 22 14 -5 20
-2 20 10 0 9 10 35 22 58 20 37 23 39 26 19 2 -13 -1 -37 -7 -54z m175 -3 c5
-21 12 -25 46 -25 l40 0 -31 -26 c-26 -21 -29 -29 -21 -50 14 -36 13 -37 -20
-18 -29 18 -30 18 -55 -6 l-26 -24 6 39 c6 36 4 42 -22 57 l-28 17 33 1 c28 0
36 5 45 30 14 37 25 38 33 5z m347 -530 c201 -30 412 -128 517 -240 32 -34 29
-33 -25 10 -78 63 -220 130 -340 160 -412 105 -828 1 -1107 -277 -43 -43 -78
-75 -78 -70 0 17 105 135 160 179 239 194 569 284 873 238z m267 -338 c160
-35 163 -36 196 -104 l29 -58 3 -287 c4 -379 -5 -418 -136 -594 -144 -194
-335 -303 -510 -291 -162 10 -398 104 -454 180 -101 137 -228 495 -259 728
-10 83 -10 108 5 190 l17 94 67 37 c196 107 364 139 702 133 193 -3 241 -7
340 -28z m-6140 -261 c6 -8 10 -25 8 -38 -3 -22 -5 -21 -21 9 -9 18 -17 34
-17 38 0 10 18 5 30 -9z m-260 -204 c69 -150 307 -641 318 -655 10 -12 72
-133 165 -322 44 -89 53 -115 46 -133 -5 -13 -14 -22 -20 -20 -17 6 -588 1149
-589 1179 0 23 16 49 30 49 3 0 25 -44 50 -98z m6777 71 c14 -21 18 -48 18
-128 0 -106 -13 -167 -52 -252 -26 -57 -37 -64 -53 -34 -17 32 -12 61 16 94
22 26 25 37 20 70 -6 34 5 128 21 181 10 33 -18 6 -38 -38 l-19 -41 2 75 c3
68 5 76 28 87 34 17 37 17 57 -14z m-3299 -72 c78 -22 84 -26 103 -62 11 -22
50 -86 88 -143 72 -109 87 -149 97 -264 4 -45 11 -69 17 -65 7 4 7 -2 2 -18
-5 -13 -9 -115 -10 -225 -2 -260 7 -244 -180 -331 -249 -115 -385 -134 -577
-83 -39 11 -41 14 -108 153 -110 227 -159 401 -161 564 0 48 -4 122 -8 163
-10 96 2 143 49 190 39 39 173 102 280 132 93 26 293 20 408 -11z m5613 -133
c19 -7 140 -39 269 -73 l235 -60 12 -140 c14 -162 16 -175 43 -275 11 -41 25
-115 31 -165 l10 -90 -45 -158 c-51 -179 -75 -230 -166 -359 -136 -193 -215
-252 -335 -252 -119 0 -217 73 -409 304 -114 136 -117 143 -132 293 -7 73 -16
140 -19 150 -13 33 -25 17 -25 -33 0 -27 -4 -50 -10 -50 -35 0 -76 89 -116
258 -26 105 -28 153 -7 159 6 2 36 -20 66 -50 50 -50 56 -60 66 -119 6 -36 11
-77 11 -92 0 -18 5 -26 13 -24 22 8 35 51 47 153 6 55 19 143 30 195 11 52 20
118 20 145 1 88 42 237 77 275 5 5 139 17 229 18 39 1 86 -3 105 -10z m-3859
-10 c16 -13 42 -78 34 -85 -2 -3 -12 7 -21 20 -29 44 -45 39 -20 -6 13 -23 31
-73 41 -112 22 -89 37 -119 74 -147 18 -13 30 -31 30 -44 0 -109 -154 118
-197 290 -13 53 -13 69 -3 81 15 18 41 19 62 3z m-1282 -287 c41 -78 -33 -301
-103 -309 -26 -3 -27 -2 -27 45 0 26 -5 75 -11 108 -20 107 -18 112 66 155 50
25 62 25 75 1z m2664 -218 c3 -38 7 -124 9 -193 l2 -126 -37 -74 c-21 -41 -68
-115 -105 -165 -85 -114 -291 -320 -408 -408 l-90 -67 -20 25 c-29 35 -256
415 -299 500 -31 60 -38 88 -51 199 -9 71 -13 131 -11 134 3 3 65 -28 138 -68
155 -85 219 -109 309 -117 59 -5 72 -2 147 30 45 19 93 44 107 55 34 27 157
172 225 265 30 42 60 76 66 76 7 1 14 -25 18 -66z m-3888 -20 c17 -75 35 -144
49 -184 l15 -44 -20 25 c-41 50 -80 153 -80 210 0 30 29 24 36 -7z m7075 -56
c8 -18 3 -42 -25 -121 -20 -54 -36 -105 -36 -113 0 -19 -29 -87 -35 -82 -2 3
2 29 10 59 11 42 45 249 45 275 0 16 32 1 41 -18z m-7014 -222 c22 -14 43 -48
74 -115 24 -52 58 -114 76 -137 28 -37 36 -61 55 -165 l21 -121 -54 -49 c-30
-26 -98 -80 -152 -119 -63 -46 -99 -80 -103 -95 -5 -20 -45 -44 -218 -130
-116 -59 -241 -124 -278 -145 -36 -21 -68 -39 -70 -39 -2 0 -2 38 0 86 l4 85
261 196 262 196 6 156 c4 86 7 226 8 311 1 85 4 165 7 177 6 20 9 18 38 -25
18 -26 46 -56 63 -67z m4053 -161 c0 -7 -5 -24 -11 -38 -13 -27 -47 -37 -146
-41 -57 -2 -65 -5 -127 -55 l-67 -52 57 78 c64 90 134 225 134 263 1 23 10 17
80 -58 44 -46 80 -90 80 -97z m-1265 24 c9 -41 78 -173 180 -342 57 -95 74
-131 64 -134 -28 -9 -99 -93 -137 -163 -22 -39 -43 -66 -46 -61 -10 16 -106
287 -160 449 -29 85 -45 151 -41 162 6 20 112 121 126 121 4 0 10 -15 14 -32z
m-1801 -37 c4 -5 11 -64 16 -132 12 -141 16 -131 -85 -207 -121 -92 -227 -185
-256 -225 -36 -49 -54 -110 -88 -284 l-26 -132 -65 82 c-144 181 -161 206
-180 261 -13 34 -24 107 -31 187 -6 71 -16 167 -23 212 -8 45 -12 84 -11 85 2
2 40 -10 84 -27 92 -35 122 -37 243 -15 80 15 98 23 240 110 153 93 172 102
182 85z m3136 -46 c-20 -24 -29 -74 -19 -108 16 -60 74 -101 329 -233 134 -69
284 -152 334 -185 l89 -59 102 35 c56 19 109 35 119 35 40 0 109 -161 135
-314 10 -59 9 -83 -9 -185 -12 -64 -37 -197 -55 -296 -18 -99 -36 -200 -40
-225 l-7 -45 34 50 c19 28 52 79 73 114 33 52 41 60 47 45 8 -21 101 -473 118
-574 6 -36 13 -76 16 -89 5 -23 3 -23 -38 11 -82 67 -236 150 -364 197 -68 25
-227 146 -358 272 l-79 77 5 138 c9 214 5 205 183 392 159 167 187 202 161
202 -7 0 -87 -36 -176 -80 -89 -45 -164 -79 -166 -77 -3 2 16 84 41 181 26 97
45 184 43 192 -2 7 -42 -37 -90 -99 -191 -247 -240 -300 -344 -370 l-99 -67
-280 0 c-154 0 -290 -3 -303 -6 l-22 -6 2 -197 3 -196 35 2 c19 0 73 4 121 8
111 10 182 -9 239 -64 22 -21 40 -47 40 -58 0 -13 -39 -56 -107 -119 -60 -55
-115 -104 -123 -111 -12 -9 -39 -8 -115 2 -55 8 -176 19 -270 24 -93 6 -194
13 -222 17 l-53 5 0 42 c0 91 31 466 45 556 18 112 81 440 95 491 8 29 23 43
94 88 46 28 90 52 99 52 26 0 78 -73 214 -298 5 -8 41 46 101 150 51 90 144
249 207 353 64 105 134 227 157 271 28 53 47 80 55 77 10 -4 11 -9 3 -18z
m332 -125 c112 -50 257 -120 323 -156 127 -70 255 -156 239 -161 -5 -2 -40
-12 -78 -22 l-69 -19 -73 49 c-40 26 -146 84 -236 127 -281 135 -368 192 -368
242 0 56 1 56 262 -60z m-1916 5 c-22 -33 -82 -63 -278 -136 -90 -33 -198 -73
-241 -90 -43 -16 -85 -29 -93 -29 -12 0 -34 29 -34 44 0 32 630 260 659 239 2
-1 -4 -14 -13 -28z m144 -215 c115 -333 156 -435 174 -432 9 2 16 -2 16 -8 0
-27 20 -4 44 53 38 90 102 187 123 187 10 0 38 -17 62 -38 l43 -37 -45 -220
c-54 -259 -82 -473 -99 -735 l-12 -190 -35 0 c-39 0 -159 18 -315 46 l-98 18
-54 80 c-30 45 -54 86 -54 93 0 18 85 40 259 67 52 8 100 21 108 28 11 11 12
51 7 205 l-7 190 -105 7 c-58 3 -162 6 -231 7 l-126 0 -120 141 c-66 78 -153
181 -194 230 -40 48 -78 88 -83 88 -7 0 -8 -18 -5 -47 17 -134 29 -324 25
-401 -5 -94 -33 -178 -73 -220 l-22 -24 -54 41 c-71 55 -112 54 -148 -1 -13
-21 -30 -38 -37 -38 -20 0 -44 -42 -44 -77 0 -18 -3 -33 -6 -33 -3 0 -37 10
-76 21 -54 17 -87 20 -147 17 l-77 -4 86 140 c48 78 140 245 205 371 151 294
242 443 259 424 2 -2 13 -23 25 -46 12 -24 25 -43 30 -43 15 0 266 89 411 145
185 72 261 109 295 145 16 16 30 29 31 27 2 -1 30 -81 64 -177z m3313 -19
c166 -186 256 -239 388 -228 82 7 137 33 203 96 l48 46 -5 -225 c-5 -196 -8
-232 -26 -281 -34 -89 -123 -169 -188 -169 -59 0 -173 61 -330 176 -76 56
-125 121 -170 224 -14 30 -34 75 -46 100 -19 39 -21 57 -18 145 3 55 5 140 5
188 1 87 1 88 19 65 11 -13 65 -74 120 -137z m-205 73 c17 -5 22 -14 22 -38 0
-25 -11 -42 -56 -84 -51 -48 -55 -55 -49 -85 8 -34 84 -262 184 -546 54 -155
58 -172 38 -159 -12 8 -44 27 -71 44 -48 29 -50 33 -187 309 -77 154 -139 286
-139 293 0 14 131 193 178 245 26 28 40 31 80 21z m-2273 -84 c-16 -17 -13
-26 45 -139 51 -98 65 -119 76 -110 11 9 14 9 14 0 0 -13 -28 -71 -34 -71 -2
0 -36 58 -76 130 -39 71 -78 136 -86 145 -13 13 -11 18 18 44 36 32 72 33 43
1z m1988 -226 c4 -16 67 -147 139 -292 l131 -262 64 -40 c35 -22 63 -45 63
-50 0 -6 -11 -27 -24 -48 l-24 -38 67 -110 c61 -99 66 -111 55 -133 -7 -13
-13 -65 -13 -115 -1 -50 -7 -136 -14 -191 l-12 -100 -242 -3 -243 -2 -1 -33
c-1 -31 -2 -31 -10 8 -51 231 -134 668 -140 735 -5 47 -13 164 -19 260 -6 105
-18 209 -30 259 -11 46 -19 86 -17 88 10 9 243 102 251 100 6 -2 14 -16 19
-33z m-7021 -6 c7 -13 22 -45 33 -73 12 -27 43 -85 68 -128 26 -43 47 -83 47
-89 0 -6 -8 -17 -17 -24 -20 -15 -50 46 327 -678 192 -369 203 -392 207 -455
4 -46 2 -63 -5 -56 -9 9 -116 212 -663 1260 -57 110 -106 203 -107 207 -2 5
12 15 31 23 20 8 38 19 42 25 10 16 23 12 37 -12z m8673 -488 c110 -69 221
-144 246 -168 26 -23 63 -73 82 -110 62 -118 196 -534 306 -947 94 -355 120
-450 146 -534 51 -168 51 -330 1 -429 -54 -106 -186 -270 -297 -368 -70 -62
-99 -60 -222 16 l-57 34 0 118 0 117 48 -23 c136 -68 189 -30 212 152 14 104
25 153 72 319 30 108 39 156 36 198 -1 30 1 55 5 55 13 0 91 -41 111 -59 18
-15 18 -15 8 5 -14 27 -67 72 -107 91 -26 13 -36 31 -78 142 -26 70 -63 157
-81 194 l-34 66 19 78 c18 72 39 375 26 363 -3 -3 -13 -67 -22 -143 -9 -77
-24 -164 -34 -195 l-17 -57 -31 45 c-29 43 -30 47 -17 79 8 18 26 77 40 130
22 78 26 110 21 171 -4 64 -52 249 -62 238 -1 -1 4 -34 12 -73 22 -102 14
-310 -15 -389 -26 -71 -29 -74 -46 -55 -20 20 -85 141 -111 206 l-22 54 20 80
20 81 -96 96 -96 97 29 55 c16 30 29 58 30 62 0 4 -73 88 -162 186 -206 225
-205 223 -138 181 30 -19 145 -91 255 -159z m-995 -40 c104 -114 160 -185 237
-300 85 -126 214 -375 191 -368 -7 3 -16 18 -20 36 -8 29 -49 72 -70 72 -4 0
-26 11 -48 25 -23 15 -54 25 -75 25 -77 0 -143 -52 -133 -105 7 -35 -10 -42
-18 -8 -29 130 -98 370 -180 628 -30 94 -57 179 -60 190 -4 11 13 -5 37 -35
23 -30 86 -102 139 -160z m649 91 c34 -60 61 -112 61 -115 0 -11 -115 -2 -122
8 -8 11 -11 216 -4 216 2 0 32 -49 65 -109z m252 -160 l94 -103 -33 -60 -33
-60 99 -102 100 -101 -12 -39 -11 -38 -23 48 c-36 75 -70 120 -110 147 -31 20
-41 36 -61 98 -13 41 -46 124 -73 184 -27 61 -56 126 -65 145 l-15 35 24 -25
c14 -14 67 -72 119 -129z m-4355 106 c4 -4 9 -62 12 -130 l5 -124 -143 -27
c-103 -19 -156 -35 -192 -55 l-50 -29 -71 59 c-38 32 -74 59 -78 59 -14 0 -38
94 -44 179 l-7 84 281 -5 c154 -2 284 -7 287 -11z m1446 -46 l57 -6 -40 -101
c-37 -96 -42 -103 -104 -152 -35 -29 -69 -52 -74 -52 -5 0 -44 19 -86 41 -72
39 -84 42 -188 50 -62 4 -115 8 -119 8 -13 1 -48 132 -48 177 l0 44 273 -1
c149 -1 298 -4 329 -8z m-2362 -130 c100 -78 204 -178 236 -225 18 -27 32 -52
30 -54 -3 -2 -35 6 -73 18 -66 22 -70 25 -132 107 -35 46 -84 105 -107 130
-33 36 -41 50 -33 60 13 15 18 12 79 -36z m4209 -96 c23 -68 41 -131 41 -140
0 -33 -26 -6 -82 86 -50 83 -55 96 -44 114 7 11 18 30 25 43 6 12 14 22 16 22
2 0 22 -56 44 -125z m-3925 -25 c73 -71 134 -141 151 -171 15 -28 25 -52 23
-54 -2 -3 -21 1 -43 7 -30 10 -48 26 -84 78 -25 36 -84 104 -130 152 -78 81
-91 108 -55 108 9 0 71 -54 138 -120z m4833 87 c16 -19 42 -64 56 -100 27 -68
76 -282 66 -291 -3 -3 -31 0 -62 6 l-56 12 -30 70 c-69 164 -85 273 -47 315
26 29 39 26 73 -12z m-5201 -29 c58 -62 117 -139 111 -144 -3 -3 -31 0 -63 7
-51 12 -60 17 -85 58 -34 53 -40 111 -11 111 10 0 32 -15 48 -32z m-155 -86
c62 -25 74 -33 74 -53 0 -20 7 -24 65 -36 100 -20 267 -69 423 -125 349 -123
661 -179 1182 -213 359 -23 518 -55 698 -138 65 -30 86 -44 83 -56 -3 -9 -8
-36 -11 -61 l-7 -45 -396 -109 c-218 -60 -513 -144 -654 -188 -446 -136 -576
-160 -852 -159 -299 1 -379 17 -545 113 -47 28 -124 68 -170 89 -112 52 -148
81 -177 143 -23 49 -24 60 -24 281 0 252 12 356 56 497 14 46 29 87 32 92 10
18 148 -2 223 -32z m-291 8 c0 -5 -4 -10 -9 -10 -6 0 -13 5 -16 10 -3 6 1 10
9 10 9 0 16 -4 16 -10z m-3865 -39 c3 -5 27 -17 53 -27 26 -9 63 -24 82 -32
19 -9 58 -16 85 -17 33 -2 65 -11 95 -28 46 -27 107 -37 94 -16 -5 9 2 10 22
6 16 -4 91 -10 166 -13 76 -4 135 -11 132 -15 -6 -10 78 -9 91 1 6 4 45 11 88
15 65 6 77 5 77 -8 0 -23 -22 -35 -96 -53 -98 -23 -341 -15 -484 16 -177 38
-450 131 -450 155 0 23 32 35 45 16z m9775 -162 c22 -34 58 -109 80 -168 49
-126 89 -201 179 -336 95 -141 121 -191 184 -350 85 -214 91 -283 36 -442 -31
-92 -57 -201 -70 -298 -6 -49 -18 -106 -26 -125 l-15 -35 -20 55 c-29 82 -128
478 -128 514 0 17 -6 59 -14 94 l-13 62 26 1 c70 2 59 16 -31 37 -155 38 -217
79 -330 220 -54 67 -97 97 -128 87 -27 -9 -25 -22 6 -38 l27 -14 -25 -6 c-27
-7 -82 6 -104 24 -8 6 -14 29 -14 50 0 42 -7 39 128 69 88 20 76 34 -26 28
-106 -6 -117 0 -106 57 8 43 17 48 128 70 44 8 82 18 85 21 3 3 -38 4 -92 2
-79 -2 -100 0 -107 12 -16 25 -11 66 10 92 17 22 30 27 97 32 43 4 96 9 117
12 65 10 17 26 -98 33 l-101 6 1 33 c1 18 9 44 18 57 22 33 73 33 200 0 53
-14 113 -25 134 -25 l37 1 -36 21 c-34 21 -37 26 -42 83 -4 33 -9 75 -13 93
-3 17 -4 32 0 32 4 0 24 -27 46 -61z m-1075 9 c28 -22 28 -22 22 -115 -6 -91
-6 -93 18 -109 29 -19 105 -12 144 13 20 13 22 20 17 54 -6 37 -5 39 34 59 39
20 43 20 73 4 18 -9 49 -25 70 -36 60 -30 65 -54 28 -127 -17 -34 -31 -66 -31
-72 0 -19 60 22 75 51 19 38 31 38 83 -1 35 -26 42 -36 42 -65 0 -19 -12 -57
-26 -85 -14 -28 -22 -54 -19 -57 4 -4 23 10 42 32 27 29 37 35 44 25 18 -29 9
-84 -21 -129 -35 -53 -37 -64 -9 -55 20 7 20 6 4 -25 -9 -17 -37 -54 -63 -83
-26 -29 -100 -120 -164 -202 -72 -93 -141 -170 -180 -202 -131 -105 -230 -175
-237 -167 -4 5 -13 29 -20 54 -7 25 -37 107 -67 182 -30 75 -54 140 -54 144 0
5 21 29 48 54 26 25 55 62 65 82 23 48 22 134 -3 228 -23 90 -25 153 -5 280 8
52 15 132 15 177 0 45 3 88 6 97 9 22 36 20 69 -6z m-7015 -105 c0 -23 -4 -33
-9 -27 -9 8 -4 64 5 64 2 0 4 -17 4 -37z m7102 -48 c3 -14 1 -25 -3 -25 -5 0
-9 11 -9 25 0 14 2 25 4 25 2 0 6 -11 8 -25z m-7658 -57 c13 -34 13 -38 0 -38
-17 0 -48 66 -38 81 8 14 19 2 38 -43z m6139 11 c209 -43 482 -146 473 -178
-3 -9 -17 -60 -31 -115 -61 -226 -196 -589 -283 -761 -53 -103 -130 -187 -208
-226 -49 -24 -50 -24 -345 -23 -691 4 -1294 79 -1805 225 -202 58 -366 137
-394 189 -10 20 -8 20 127 20 228 0 418 37 784 154 207 66 483 147 934 276
244 70 361 117 401 161 24 26 9 24 -101 -16 -52 -19 -95 -33 -95 -32 0 15 44
195 57 236 16 49 23 57 64 78 95 47 233 51 422 12z m-6267 -51 c20 -40 54 -99
76 -130 34 -51 36 -58 19 -58 -22 0 -66 64 -111 163 -28 62 -37 97 -25 97 3 0
21 -33 41 -72z m68 57 c-4 -8 -16 -15 -28 -15 -21 1 -21 1 -2 15 25 19 37 19
30 0z m-52 -253 c40 -45 98 -127 98 -140 0 -5 -9 -17 -21 -28 -20 -18 -21 -17
-90 56 -38 41 -69 81 -69 90 0 18 27 60 39 60 5 0 24 -17 43 -38z m7526 -32
c7 -39 12 -75 12 -80 0 -11 -358 -14 -434 -4 l-46 7 0 73 0 74 228 0 228 0 12
-70z m-7158 -47 c13 -28 25 -75 28 -114 5 -74 1 -79 -64 -93 l-32 -7 -7 105
c-6 90 -5 110 9 131 24 37 41 31 66 -22z m-390 -100 c62 -80 70 -107 37 -127
-16 -9 -28 -1 -88 62 -38 41 -69 79 -69 86 0 19 30 56 45 56 8 0 41 -35 75
-77z m7572 24 c14 -22 19 -99 9 -130 -17 -49 -98 -123 -143 -130 -20 -3 -131
-49 -245 -102 -114 -53 -232 -108 -262 -121 l-54 -25 6 31 c4 16 12 110 19
208 l12 179 43 12 c52 16 91 45 104 78 l9 24 247 -7 c150 -4 251 -11 255 -17z
m-7672 -129 c30 -40 58 -78 63 -85 11 -16 -9 -53 -30 -53 -15 0 -93 76 -133
131 -20 26 -20 27 1 53 11 14 26 26 33 26 7 0 36 -33 66 -72z m6960 -35 c0
-32 -3 -75 -7 -96 -6 -37 -7 -34 -29 55 -13 51 -24 94 -24 95 0 2 14 3 30 3
30 0 30 0 30 -57z m1450 15 c0 -270 -76 -1262 -93 -1218 -3 8 -17 130 -32 270
-15 140 -40 365 -55 500 l-28 245 24 35 c35 51 168 209 177 210 4 0 7 -19 7
-42z m-1566 10 c32 -111 86 -342 86 -365 0 -26 -8 -32 -82 -69 l-83 -40 -55
33 c-30 18 -56 37 -58 42 -1 4 17 57 41 117 24 60 59 153 78 206 24 70 39 98
50 98 9 0 20 -10 23 -22z m-6295 -310 c22 -128 58 -318 80 -422 22 -105 39
-192 37 -194 -8 -7 -111 125 -182 233 -39 61 -109 173 -154 250 -44 77 -92
151 -105 164 l-24 24 45 50 c24 27 59 74 76 103 31 52 33 53 88 59 30 4 60 8
65 9 21 6 36 -49 74 -276z m8166 215 c21 -27 53 -64 70 -83 l32 -35 -33 -240
c-33 -237 -61 -485 -85 -743 -7 -73 -16 -127 -20 -120 -3 7 -9 58 -13 113 -12
190 -46 651 -66 889 -11 131 -18 241 -16 244 5 4 62 19 82 21 7 1 29 -20 49
-46z m-8091 -203 c54 -200 203 -777 212 -825 6 -34 5 -35 -24 -35 -17 0 -34 5
-37 10 -17 27 -132 572 -176 829 -43 254 -40 256 25 21z m-575 96 c17 -18 35
-26 60 -26 33 0 34 -1 15 -15 -34 -25 -60 -18 -98 29 -20 23 -36 46 -36 50 0
11 33 -10 59 -38z m7526 -43 c21 -49 49 -117 62 -153 31 -85 223 -687 223
-699 0 -20 -874 -368 -1047 -415 -99 -28 -357 -86 -379 -86 -14 0 5 27 66 89
77 79 127 169 160 286 29 102 24 111 -14 24 -57 -130 -105 -214 -146 -254
l-38 -38 10 44 c13 56 3 264 -16 349 -8 36 -23 109 -32 162 l-17 96 37 50 c48
66 155 165 230 215 34 21 135 75 226 120 181 89 621 295 631 296 4 1 24 -38
44 -86z m1460 -97 c17 -58 19 -125 4 -181 -6 -25 -11 -238 -13 -559 l-2 -519
-136 2 c-116 2 -138 0 -145 -14 -8 -14 -11 -14 -27 4 -16 18 -16 28 3 217 12
110 32 309 46 444 22 209 75 619 90 685 4 21 5 21 85 -5 l81 -25 14 -49z
m-815 -401 c23 -209 50 -460 61 -558 13 -115 17 -199 13 -239 l-7 -61 -378 7
c-209 4 -379 4 -379 0 0 -4 27 -49 60 -101 33 -51 60 -94 60 -96 0 -1 -125 1
-277 4 -153 4 -430 7 -615 8 l-338 1 0 69 0 68 53 7 c82 11 260 53 406 97 116
35 912 348 999 393 26 14 32 23 32 50 0 47 -37 316 -60 432 l-19 99 26 20
c132 100 230 185 265 231 l43 55 7 -53 c4 -29 26 -224 48 -433z m-7186 410 c3
-8 1 -15 -4 -15 -6 0 -10 7 -10 15 0 8 2 15 4 15 2 0 6 -7 10 -15z m5642 -136
c19 -11 34 -24 34 -27 0 -13 -87 -62 -109 -62 -13 0 -21 3 -19 8 2 4 11 28 22
55 10 26 23 47 29 47 5 0 25 -9 43 -21z m-2865 -116 c68 -71 157 -163 197
-206 39 -42 72 -75 72 -71 0 3 -31 79 -70 169 -38 90 -70 165 -70 167 0 2 51
-13 113 -34 61 -21 191 -56 287 -79 96 -22 182 -44 191 -47 14 -6 11 -33 -22
-237 -21 -126 -45 -287 -54 -357 -13 -104 -80 -466 -88 -474 -1 -2 -124 -4
-274 -5 l-272 -2 -38 28 c-21 16 -62 49 -92 74 -29 25 -88 66 -130 91 -104 62
-121 89 -121 199 0 109 15 167 91 350 81 194 86 211 108 388 19 149 25 173 40
173 4 0 63 -57 132 -127z m3997 -85 c23 -144 22 -152 -7 -58 -34 106 -37 130
-18 130 9 0 17 -25 25 -72z m1322 -120 c27 -102 54 -197 60 -212 12 -31 11
-31 -45 -5 -53 25 -52 22 -59 194 -3 72 -9 150 -12 175 -12 84 7 33 56 -152z
m-7821 45 c34 -102 33 -100 21 -81 -19 30 -60 148 -52 148 4 0 18 -30 31 -67z
m3671 -14 c85 -11 156 -22 158 -24 1 -1 -33 -56 -76 -121 -148 -224 -293 -456
-288 -461 3 -3 33 19 68 48 72 62 437 387 485 432 18 17 35 28 38 25 3 -3 -22
-90 -56 -192 -34 -102 -59 -189 -55 -193 4 -4 104 91 224 210 257 256 250 253
310 150 88 -151 136 -301 136 -429 1 -85 -1 -95 -37 -167 -48 -98 -137 -189
-235 -240 -38 -20 -81 -37 -93 -37 -18 0 -55 33 -137 120 l-113 120 -147 -1
-147 0 -105 -119 -105 -119 -187 0 c-104 -1 -188 1 -188 2 0 2 13 66 29 143
17 76 37 191 45 254 31 226 96 640 102 651 1 3 52 -3 111 -13 59 -10 178 -27
263 -39z m-3690 -584 c-5 -138 -10 -189 -23 -217 l-17 -38 -131 0 -131 0 7
183 c4 100 10 185 14 189 3 3 41 20 84 37 43 17 101 45 130 61 l52 30 10 -33
c7 -21 9 -96 5 -212z m1462 -363 c21 -9 99 -66 175 -127 l138 -110 -45 -3
c-38 -2 -71 9 -205 69 -172 76 -225 109 -225 139 0 45 95 63 162 32z m2562
-124 c88 -94 94 -103 71 -106 -15 -2 -62 17 -122 49 l-98 52 -93 -52 c-62 -35
-101 -51 -119 -49 -26 3 -24 7 67 106 l93 102 53 0 52 0 96 -102z m3392 -70
l90 -89 44 92 44 92 200 -6 c111 -4 254 -7 318 -7 l117 0 -25 -67 c-37 -98
-31 -146 69 -493 63 -218 556 -1935 649 -2260 19 -65 95 -255 132 -328 40 -80
86 -154 159 -255 26 -38 47 -71 45 -73 -3 -2 -40 17 -84 42 -65 38 -114 82
-279 249 -183 185 -263 253 -352 299 l-32 16 18 53 c15 42 17 64 10 107 -7 45
-74 294 -250 928 -21 78 -57 208 -80 290 -22 81 -58 210 -79 287 -22 77 -71
257 -110 400 -101 368 -119 423 -152 461 -40 45 -90 61 -123 40 -43 -28 -35
-101 40 -380 58 -218 150 -559 240 -896 19 -69 68 -253 110 -410 130 -487 123
-468 204 -553 l45 -47 -23 -17 c-52 -36 -93 -78 -110 -112 -21 -41 -41 -126
-41 -174 0 -28 -8 -19 -77 82 -78 116 -152 198 -257 288 l-60 50 32 39 c54 65
63 17 -183 974 -36 140 -110 432 -166 649 -55 216 -109 413 -121 437 -27 58
-70 94 -113 94 -51 0 -65 -21 -65 -95 0 -65 8 -100 379 -1605 149 -603 149
-604 212 -686 27 -37 49 -68 47 -70 -2 -1 -22 1 -44 6 -22 5 -134 25 -250 45
-115 19 -219 38 -232 41 l-23 5 23 32 c17 24 24 49 26 102 4 72 -6 117 -148
725 -23 96 -52 222 -65 280 -13 58 -44 195 -70 305 -76 326 -111 479 -160 690
-71 312 -90 362 -175 464 l-50 60 328 -6 327 -5 91 -90z m-8266 75 c0 -10 -9
-160 -20 -333 -21 -329 -62 -1232 -56 -1237 2 -2 15 43 30 99 14 57 42 164 62
238 273 1023 283 1070 250 1182 -9 31 -16 59 -16 62 0 3 106 6 235 6 l235 0
-50 -74 c-28 -40 -61 -101 -75 -134 -14 -34 -120 -438 -236 -899 -116 -461
-240 -953 -276 -1093 -74 -289 -89 -410 -60 -493 l15 -46 -26 -5 c-15 -3 -125
-24 -245 -47 -120 -23 -220 -39 -223 -36 -4 3 4 20 16 37 50 71 52 88 60 680
5 305 11 605 14 665 4 74 3 103 -4 88 -5 -13 -59 -204 -121 -425 -61 -222
-141 -506 -177 -633 -64 -226 -66 -232 -67 -359 l-2 -128 -53 -34 c-70 -44
-105 -79 -200 -194 -89 -109 -203 -222 -274 -270 -46 -31 -133 -70 -157 -70
-5 0 10 26 34 58 128 167 237 385 306 610 17 53 186 642 378 1307 l347 1210 0
100 c0 76 -4 108 -17 132 -9 18 -17 34 -17 37 0 3 82 7 183 9 100 1 188 3 195
5 6 1 12 -6 12 -15z m2745 -45 c6 -5 10 -31 9 -59 l0 -49 159 0 159 0 -31 -35
c-41 -47 -47 -74 -76 -350 -121 -1150 -119 -1126 -112 -1169 3 -20 15 -49 26
-65 l20 -28 -107 -7 c-59 -4 -145 -9 -192 -13 l-85 -5 32 33 c18 19 39 50 46
69 15 36 18 57 87 635 23 187 52 430 65 539 29 228 31 323 11 351 -14 19 -15
19 -35 -5 -11 -14 -20 -28 -21 -31 0 -4 -18 -19 -40 -34 -35 -24 -40 -33 -40
-66 0 -21 -23 -211 -50 -421 -28 -211 -62 -471 -75 -578 -14 -107 -32 -227
-40 -266 -39 -179 -146 -262 -351 -272 -147 -7 -221 23 -263 105 -21 42 -10
146 59 555 159 933 150 898 229 978 62 64 138 93 246 93 97 1 157 -23 210 -85
l34 -41 36 36 c43 43 44 62 5 82 -24 13 -30 22 -30 49 0 60 72 94 115 54z
m-698 -19 c28 -57 -24 -168 -102 -220 l-40 -27 -38 -209 c-20 -114 -58 -323
-82 -463 -95 -530 -126 -693 -146 -745 -26 -70 -87 -138 -152 -169 -188 -92
-405 -67 -446 51 -16 46 -12 74 104 613 25 118 57 267 70 330 13 63 47 222 75
353 54 260 57 281 36 331 l-14 34 45 6 c25 3 95 6 155 6 l109 0 -21 -29 c-11
-16 -27 -49 -36 -73 -12 -34 -185 -872 -269 -1308 -26 -133 -16 -190 35 -190
30 0 77 47 94 93 9 23 34 137 56 252 22 116 71 373 110 572 100 521 110 583
101 625 -5 19 -11 40 -15 46 -7 11 231 22 246 12 4 -3 3 -23 -2 -45 -5 -22 -7
-41 -4 -44 2 -2 18 8 34 24 35 33 40 70 10 78 -41 11 -43 84 -2 115 27 21 75
11 89 -19z m1883 -83 c0 -2 -11 -23 -24 -47 -31 -55 -41 -113 -116 -639 -33
-234 -72 -499 -85 -589 -31 -203 -32 -274 -5 -318 l20 -33 -79 0 c-43 0 -140
-3 -216 -7 l-139 -6 25 34 24 34 -3 340 c-2 187 -7 518 -11 735 -6 375 -8 397
-28 443 l-22 47 149 0 149 0 -16 -37 c-21 -52 -25 -206 -16 -598 l8 -330 18
130 c28 196 88 653 94 710 3 34 0 63 -10 87 l-16 37 112 4 c62 1 129 4 150 5
20 1 37 0 37 -2z m376 -18 c-50 -69 -48 -45 -54 -796 l-5 -702 30 -49 30 -48
-180 -7 c-98 -4 -182 -4 -185 -1 -3 3 7 18 21 33 15 16 32 43 37 61 11 39 44
1324 36 1404 -3 35 -14 70 -26 87 -11 15 -20 31 -20 34 0 3 75 6 166 6 l166 0
-16 -22z m581 15 l141 -6 6 -81 c12 -169 12 -196 7 -196 -3 1 -15 15 -26 32
-36 56 -74 68 -215 68 l-126 0 3 -182 c2 -101 6 -211 9 -245 l6 -63 79 0 c93
0 143 17 180 62 l26 31 6 -129 c4 -71 7 -156 7 -189 l-1 -60 -21 29 c-32 43
-75 56 -182 56 l-95 0 5 -187 c2 -104 7 -230 10 -280 l6 -93 162 0 c157 0 164
1 188 23 14 13 27 30 30 38 11 29 15 1 21 -123 l7 -128 -209 0 c-114 0 -276 3
-360 7 l-152 6 19 21 c26 28 38 54 45 96 3 19 2 341 -2 715 -7 732 -4 689 -57
763 l-16 22 178 0 c99 0 243 -3 321 -7z m940 -108 c6 -55 14 -115 17 -134 l5
-34 -42 41 c-23 22 -55 46 -70 51 -36 14 -167 26 -167 16 0 -7 14 -154 106
-1094 14 -146 31 -279 38 -295 7 -17 25 -46 41 -64 l27 -33 -98 6 c-55 3 -141
8 -192 11 l-92 6 30 34 c36 42 36 28 10 343 -10 135 -33 426 -50 646 -17 220
-33 410 -36 423 -4 20 -10 22 -61 22 -78 0 -129 -18 -164 -57 -18 -22 -31 -29
-33 -21 -3 7 -7 64 -10 126 l-6 112 367 -2 368 -3 12 -100z m677 -198 c181
-443 275 -664 276 -645 0 9 -11 81 -25 160 -13 79 -40 238 -60 353 -43 251
-64 328 -104 375 -17 19 -30 38 -31 43 0 9 140 9 244 0 65 -5 76 -8 70 -22 -3
-9 -8 -47 -11 -86 -5 -69 21 -223 176 -1055 16 -85 39 -209 51 -275 23 -125
53 -213 90 -266 12 -16 21 -31 19 -33 -2 -1 -76 4 -164 13 l-160 15 0 55 c0
51 -17 93 -174 446 -95 214 -177 399 -182 410 -13 32 -11 11 16 -170 74 -491
94 -599 125 -661 16 -34 30 -64 30 -67 0 -3 -15 -10 -33 -16 -24 -8 -47 -31
-79 -75 -64 -88 -106 -118 -174 -124 l-54 -4 25 53 c41 91 49 180 30 332 -43
340 -196 1395 -207 1421 -7 16 -27 49 -45 73 l-33 43 133 0 132 0 119 -293z
m983 273 l141 0 -16 -50 c-15 -49 -15 -54 12 -173 15 -67 36 -160 46 -207 10
-47 37 -166 60 -265 23 -99 61 -268 85 -375 146 -649 138 -622 197 -708 l30
-44 -58 7 c-101 11 -289 37 -292 39 -1 2 5 22 13 45 14 40 13 51 -11 159 -56
260 -66 302 -69 302 -3 0 -69 -24 -107 -38 l-26 -11 38 -185 c41 -196 42 -198
72 -233 20 -21 20 -21 -3 -28 -13 -4 -57 -40 -99 -80 -77 -74 -142 -115 -180
-115 -18 0 -20 4 -14 23 42 129 38 164 -101 873 -142 729 -155 804 -155 894 0
71 20 116 62 144 32 21 122 36 183 30 28 -2 114 -4 192 -4z m-6410 -30 c102
-44 110 -138 41 -444 l-23 -99 -74 -24 c-40 -13 -93 -35 -117 -49 -24 -14 -44
-22 -44 -17 0 5 13 62 29 128 56 232 65 301 41 330 -28 34 -89 0 -116 -63 -8
-21 -46 -167 -84 -327 -38 -159 -87 -366 -110 -460 -125 -517 -134 -571 -106
-594 9 -8 32 -10 65 -5 44 6 52 10 58 33 30 119 110 477 107 480 -2 2 -22 -4
-45 -13 -23 -9 -44 -15 -46 -12 -3 3 6 51 19 108 23 93 28 104 54 117 118 58
314 138 314 128 0 -7 -27 -131 -59 -277 -32 -146 -81 -365 -107 -487 l-49
-222 -40 -5 c-22 -3 -96 -13 -165 -22 -229 -32 -310 -21 -345 46 -24 47 -19
149 15 279 17 64 91 361 165 661 152 611 157 629 196 686 30 45 107 106 155
125 81 31 196 31 271 -1z m3773 -1718 c54 -41 27 -124 -44 -138 -60 -11 -136
37 -136 86 0 68 113 101 180 52z m-3049 -836 c335 -165 609 -287 911 -407
l188 -74 0 -59 c0 -58 1 -60 53 -113 59 -59 84 -65 143 -37 36 17 64 58 64 92
0 18 7 17 103 -18 56 -20 181 -63 277 -95 96 -32 177 -59 179 -61 2 -2 -11
-17 -28 -34 l-31 -31 7 -177 c5 -149 4 -182 -9 -207 -14 -26 -14 -32 -1 -52
13 -19 14 -35 4 -101 -16 -111 -2 -159 63 -221 20 -19 36 -38 36 -43 0 -4 -42
-27 -93 -52 -89 -42 -127 -75 -127 -109 0 -22 73 -86 105 -92 48 -10 170 21
279 71 181 83 201 93 234 125 50 47 60 68 71 154 14 100 30 122 104 145 l57
18 0 -494 c0 -327 -3 -494 -10 -494 -48 0 -1283 591 -1875 897 -659 341 -1422
763 -1768 979 l-48 30 178 37 c98 20 254 51 348 67 93 17 171 33 173 35 2 2
-19 46 -47 98 -60 110 -62 136 -28 272 l23 90 45 6 c98 13 97 14 420 -145z"/>
<path d="M9832 14220 c-12 -5 -28 -22 -34 -37 -7 -15 -34 -50 -61 -76 l-50
-48 7 -72 c10 -112 21 -141 64 -171 21 -14 53 -42 72 -61 33 -34 34 -36 24
-85 l-11 -50 24 22 c16 15 23 33 23 61 0 41 -11 56 -103 130 -94 76 -85 175
22 241 68 42 181 86 220 86 21 0 58 -7 81 -15 l43 -15 -19 21 c-10 12 -39 35
-63 51 -41 25 -53 28 -130 27 -48 0 -96 -4 -109 -9z"/>
<path d="M9297 14167 c-33 -10 -143 -104 -133 -114 1 -2 28 8 59 22 90 42 140
43 222 6 46 -21 83 -47 107 -74 57 -64 45 2 -12 71 -17 20 -30 41 -30 47 0 6
-9 21 -20 33 -18 19 -31 22 -88 21 -37 0 -84 -6 -105 -12z"/>
<path d="M9875 14050 c-14 -7 -9 -8 20 -4 38 5 37 4 -20 -20 -33 -14 -61 -26
-62 -26 -2 0 -3 -4 -3 -10 0 -5 7 -10 16 -10 8 0 13 4 10 9 -3 4 6 13 20 20
33 15 34 14 34 -8 0 -28 15 -34 66 -26 35 5 44 10 44 26 0 21 16 24 57 8 22
-8 24 -12 13 -19 -11 -7 -8 -10 13 -10 31 0 34 10 9 33 -45 41 -163 61 -217
37z"/>
<path d="M9363 13993 c3 -5 -6 -8 -22 -5 -35 5 -105 -30 -127 -63 -9 -14 -14
-28 -11 -31 9 -9 48 6 42 16 -3 5 7 15 22 23 24 13 28 13 42 -3 23 -25 101 -8
101 21 0 15 5 20 23 17 12 -2 21 -9 20 -16 -2 -6 4 -12 12 -12 37 0 7 33 -40
44 -16 4 -38 9 -49 13 -10 3 -16 1 -13 -4z"/>
<path d="M9740 13688 c-19 -6 -63 -8 -98 -5 -51 4 -66 1 -87 -15 -45 -35 -33
-55 44 -72 95 -22 118 -20 175 12 55 30 72 51 63 76 -7 18 -43 20 -97 4z"/>
<path d="M9740 13392 c-44 -3 -231 -44 -226 -49 2 -2 48 4 102 13 55 9 151 19
214 23 l115 7 -85 5 c-47 2 -101 3 -120 1z"/>
<path d="M9790 13300 c-19 -4 -62 -11 -95 -15 l-60 -8 44 -19 c29 -13 54 -18
76 -14 34 7 85 41 85 57 0 10 -1 10 -50 -1z"/>
<path d="M7030 13565 c-47 -19 -93 -35 -102 -35 -10 0 -18 -4 -18 -8 0 -12 44
-52 57 -52 6 0 37 16 69 36 59 36 59 36 157 31 53 -2 97 -2 97 0 0 10 -128 63
-150 63 -14 0 -63 -16 -110 -35z"/>
<path d="M6587 13510 c-16 -5 -35 -14 -43 -21 -21 -17 -57 -89 -45 -89 5 0 13
5 16 10 4 6 24 19 45 30 32 16 59 20 145 20 l105 0 0 28 0 27 -98 1 c-53 1
-110 -2 -125 -6z"/>
<path d="M7087 13476 c-65 -24 -89 -58 -46 -69 16 -4 18 -3 9 8 -17 21 8 30
29 11 34 -31 101 -8 101 33 0 9 8 11 27 6 37 -9 38 -11 22 -32 -12 -15 -11
-15 14 1 15 10 27 22 27 26 0 9 -88 30 -123 30 -12 -1 -39 -7 -60 -14z"/>
<path d="M6569 13380 c-35 -19 -65 -47 -58 -54 2 -3 15 -6 29 -9 14 -2 19 -2
13 0 -13 4 -19 33 -7 33 3 0 19 -8 35 -17 36 -21 62 -9 67 31 3 23 7 25 30 20
40 -10 44 -14 30 -32 -12 -13 -10 -14 9 -4 36 20 35 30 -4 41 -55 16 -103 13
-144 -9z"/>
<path d="M6811 13360 c-1 -3 -5 -27 -7 -55 -4 -35 -15 -65 -40 -101 -69 -102
-36 -139 121 -138 53 0 112 30 131 65 13 26 13 30 -6 49 -23 23 -70 26 -103 8
-12 -7 -47 -15 -78 -18 l-56 -5 24 38 c20 32 23 48 20 100 -2 34 -4 60 -6 57z"/>
<path d="M6850 12937 c-56 -23 -100 -46 -89 -47 3 0 37 11 75 24 46 15 103 25
167 29 54 2 101 7 104 11 4 3 -41 6 -98 6 -85 0 -114 -5 -159 -23z"/>
<path d="M6955 12869 c-27 -10 -61 -18 -75 -19 l-25 -1 24 -19 c30 -26 62 -25
95 1 27 21 53 60 39 58 -4 -1 -30 -10 -58 -20z"/>
<path d="M12522 13163 c-19 -4 -72 -59 -72 -75 0 -3 19 1 43 9 49 18 199 13
236 -6 28 -15 35 -10 26 19 -4 12 -21 28 -38 35 -34 13 -157 25 -195 18z"/>
<path d="M13104 13151 c-38 -10 -71 -32 -92 -62 -15 -21 -15 -22 4 -14 68 28
194 28 273 0 l41 -14 -15 29 c-9 17 -26 37 -38 45 -28 18 -129 27 -173 16z"/>
<path d="M12170 13067 c5 -15 16 -40 25 -57 9 -17 15 -55 15 -92 0 -53 4 -68
25 -93 l26 -30 -15 37 c-10 25 -13 55 -9 91 6 58 -5 87 -51 142 l-26 30 10
-28z"/>
<path d="M12568 13080 c-32 -10 -88 -42 -88 -51 0 -8 26 -19 43 -19 7 0 6 5
-3 10 -13 9 -12 12 5 25 18 14 20 13 32 -10 25 -46 113 -42 113 6 0 28 31 22
46 -9 8 -16 14 -20 19 -12 10 17 -23 49 -64 60 -42 11 -65 12 -103 0z"/>
<path d="M13043 13035 c-35 -15 -42 -29 -19 -38 10 -4 13 -1 10 7 -3 7 1 16
10 19 9 4 16 -3 20 -19 11 -42 102 -45 113 -4 6 24 22 25 49 6 19 -15 19 -15
-1 -30 -18 -14 -17 -14 18 -4 20 6 37 15 37 20 0 5 -24 20 -52 33 -60 28 -135
32 -185 10z"/>
<path d="M12957 13001 c-10 -45 -9 -107 3 -158 19 -83 15 -129 -14 -168 -16
-20 -26 -38 -24 -41 3 -2 23 12 46 32 37 31 42 41 42 77 0 23 -7 67 -16 97 -9
30 -19 87 -23 125 -5 62 -7 66 -14 36z"/>
<path d="M12795 12470 c-108 -4 -114 -6 -65 -12 74 -10 138 -11 245 -2 63 5
82 10 65 15 -28 8 -66 8 -245 -1z"/>
<path d="M12780 12383 c0 -5 10 -19 23 -30 55 -51 96 -52 143 -2 l28 29 -81 0
c-45 0 -88 3 -97 6 -9 3 -16 2 -16 -3z"/>
<path d="M7576 13278 c-10 -15 -15 -44 -15 -79 1 -29 -2 -69 -6 -86 -5 -22 -4
-33 4 -33 6 0 11 7 11 15 0 9 8 27 17 41 14 22 15 33 6 67 -7 26 -8 49 -2 65
13 34 4 39 -15 10z"/>
<path d="M9282 12427 c-23 -23 -42 -47 -42 -53 0 -8 82 -277 95 -313 3 -8 28
16 66 65 33 44 63 84 65 90 5 11 -125 254 -136 254 -3 0 -25 -19 -48 -43z"/>
<path d="M5014 11841 c7 -46 34 -107 43 -97 9 8 -16 97 -34 120 -14 20 -15 19
-9 -23z"/>
<path d="M7533 8115 c-12 -9 -27 -32 -32 -53 -12 -42 -52 -287 -111 -672 -23
-146 -50 -322 -60 -391 -23 -143 -25 -220 -8 -237 22 -22 75 -14 97 14 31 40
38 69 86 404 137 947 129 884 114 916 -17 34 -53 42 -86 19z"/>
<path d="M12510 8059 c-14 -25 -12 -40 46 -319 96 -466 115 -556 122 -572 6
-15 12 -14 66 8 33 13 61 26 63 28 4 4 -48 255 -160 774 l-22 102 -52 0 c-43
0 -54 -4 -63 -21z"/>
</g>
</svg>
